<svg baseProfile="full" height="300" version="1.1" width="500" xmlns="http://www.w3.org/2000/svg" xmlns:ev="http://www.w3.org/2001/xml-events" xmlns:xlink="http://www.w3.org/1999/xlink"><defs><style type="text/css"><![CDATA[.background path {fill: #808080; fill-opacity: 0}.background path:nth-child(odd) {fill-opacity: .1}.axes {font-size: 14px}.x-axis .tick .lab {font-weight: bold; dominant-baseline: hanging}.axes, .tree {font-size: 14px; text-anchor: middle}.axes line, .edge {stroke: black; fill: none}.y-axis .grid {stroke: #FAFAFA}.node > .sym {fill: black; stroke: none}.site > .sym {stroke: black}.mut text {fill: red; font-style: italic}.mut.extra text {fill: hotpink}.mut line {fill: none; stroke: none}.mut .sym {fill: none; stroke: red}.mut.extra .sym {stroke: hotpink}.node .mut .sym {stroke-width: 1.5px}.tree text, .tree-sequence text {dominant-baseline: central}.plotbox .lab.lft {text-anchor: end}.plotbox .lab.rgt {text-anchor: start}]]></style></defs><g class="tree t0"><g class="plotbox"><g class="c2 node n38 p0 root" transform="translate(313.969 26.8)"><g class="a38 c2 node n36 p0" transform="translate(137.281 56.4388)"><g class="a36 i3 leaf node n7 p0 sample" transform="translate(17.25 184.961)"><path class="edge" d="M 0 0 V -184.961 H -17.25" /><rect class="sym" height="6" width="6" x="-3" y="-3" /><text class="lab" transform="translate(0 11)" /></g><g class="a36 c2 node n35 p0" transform="translate(-17.25 67.5575)"><g class="a35 i1 leaf node n2 p0 sample" transform="translate(-11.5 117.404)"><path class="edge" d="M 0 0 V -117.404 H 11.5" /><rect class="sym" height="6" width="6" x="-3" y="-3" /><text class="lab" transform="translate(0 11)" /></g><g class="a35 i9 leaf node n19 p0 sample" transform="translate(11.5 117.404)"><path class="edge" d="M 0 0 V -117.404 H -11.5" /><rect class="sym" height="6" width="6" x="-3" y="-3" /><text class="lab" transform="translate(0 11)" /></g><path class="edge" d="M 0 0 V -67.5575 H 17.25" /><circle class="sym" cx="0" cy="0" r="3" /><text class="lab lft" transform="translate(-3 -7.0)" /></g><path class="edge" d="M 0 0 V -56.4388 H -137.281" /><circle class="sym" cx="0" cy="0" r="3" /><text class="lab rgt" transform="translate(3 -7.0)" /></g><g class="a38 c2 node n37 p0" transform="translate(-137.281 17.9731)"><g class="a37 c2 node n30 p0" transform="translate(-102.062 204.214)"><g class="a30 c2 node n27 p0" transform="translate(-31.625 3.10028)"><g class="a27 i0 leaf node n0 p0 sample" transform="translate(-11.5 16.1124)"><path class="edge" d="M 0 0 V -16.1124 H 11.5" /><rect class="sym" height="6" width="6" x="-3" y="-3" /><text class="lab" transform="translate(0 11)" /></g><g class="a27 i7 leaf node n15 p0 sample" transform="translate(11.5 16.1124)"><path class="edge" d="M 0 0 V -16.1124 H -11.5" /><rect class="sym" height="6" width="6" x="-3" y="-3" /><text class="lab" transform="translate(0 11)" /></g><path class="edge" d="M 0 0 V -3.10028 H 31.625" /><circle class="sym" cx="0" cy="0" r="3" /><text class="lab lft" transform="translate(-3 -7.0)" /></g><g class="a30 c2 node n28 p0" transform="translate(31.625 2.55305)"><g class="a28 i8 leaf node n16 p0 sample" transform="translate(17.25 16.6596)"><path class="edge" d="M 0 0 V -16.6596 H -17.25" /><rect class="sym" height="6" width="6" x="-3" y="-3" /><text class="lab" transform="translate(0 11)" /></g><g class="a28 c2 node n23 p0" transform="translate(-17.25 8.08211)"><g class="a23 i2 leaf node n4 p0 sample" transform="translate(-11.5 8.57753)"><path class="edge" d="M 0 0 V -8.57753 H 11.5" /><rect class="sym" height="6" width="6" x="-3" y="-3" /><text class="lab" transform="translate(0 11)" /></g><g class="a23 i2 leaf node n5 p0 sample" transform="translate(11.5 8.57753)"><path class="edge" d="M 0 0 V -8.57753 H -11.5" /><rect class="sym" height="6" width="6" x="-3" y="-3" /><text class="lab" transform="translate(0 11)" /></g><path class="edge" d="M 0 0 V -8.08211 H 17.25" /><circle class="sym" cx="0" cy="0" r="3" /><text class="lab lft" transform="translate(-3 -7.0)" /></g><path class="edge" d="M 0 0 V -2.55305 H -31.625" /><circle class="sym" cx="0" cy="0" r="3" /><text class="lab rgt" transform="translate(3 -7.0)" /></g><path class="edge" d="M 0 0 V -204.214 H 102.062" /><circle class="sym" cx="0" cy="0" r="3" /><text class="lab lft" transform="translate(-3 -7.0)" /></g><g class="a37 c2 node n34 p0" transform="translate(102.062 139.94)"><g class="a34 c2 node n32 p0" transform="translate(-67.5625 50.7365)"><g class="a32 c2 node n24 p0" transform="translate(38.8125 23.4411)"><g class="a24 i1 leaf node n3 p0 sample" transform="translate(-11.5 9.30943)"><path class="edge" d="M 0 0 V -9.30943 H 11.5" /><rect class="sym" height="6" width="6" x="-3" y="-3" /><text class="lab" transform="translate(0 11)" /></g><g class="a24 i8 leaf node n17 p0 sample" transform="translate(11.5 9.30943)"><path class="edge" d="M 0 0 V -9.30943 H -11.5" /><rect class="sym" height="6" width="6" x="-3" y="-3" /><text class="lab" transform="translate(0 11)" /></g><path class="edge" d="M 0 0 V -23.4411 H -38.8125" /><circle class="sym" cx="0" cy="0" r="3" /><text class="lab rgt" transform="translate(3 -7.0)" /></g><g class="a32 c2 node n31 p0" transform="translate(-38.8125 2.41135)"><g class="a31 i0 leaf node n1 p0 sample" transform="translate(-25.875 30.3392)"><path class="edge" d="M 0 0 V -30.3392 H 25.875" /><rect class="sym" height="6" width="6" x="-3" y="-3" /><text class="lab" transform="translate(0 11)" /></g><g class="a31 c2 node n29 p0" transform="translate(25.875 11.9624)"><g class="a29 i6 leaf node n13 p0 sample" transform="translate(17.25 18.3768)"><path class="edge" d="M 0 0 V -18.3768 H -17.25" /><rect class="sym" height="6" width="6" x="-3" y="-3" /><text class="lab" transform="translate(0 11)" /></g><g class="a29 c2 node n25 p0" transform="translate(-17.25 7.37873)"><g class="a25 i4 leaf node n8 p0 sample" transform="translate(-11.5 10.9981)"><path class="edge" d="M 0 0 V -10.9981 H 11.5" /><rect class="sym" height="6" width="6" x="-3" y="-3" /><text class="lab" transform="translate(0 11)" /></g><g class="a25 i4 leaf node n9 p0 sample" transform="translate(11.5 10.9981)"><path class="edge" d="M 0 0 V -10.9981 H -11.5" /><rect class="sym" height="6" width="6" x="-3" y="-3" /><text class="lab" transform="translate(0 11)" /></g><path class="edge" d="M 0 0 V -7.37873 H 17.25" /><circle class="sym" cx="0" cy="0" r="3" /><text class="lab lft" transform="translate(-3 -7.0)" /></g><path class="edge" d="M 0 0 V -11.9624 H -25.875" /><circle class="sym" cx="0" cy="0" r="3" /><text class="lab rgt" transform="translate(3 -7.0)" /></g><path class="edge" d="M 0 0 V -2.41135 H 38.8125" /><circle class="sym" cx="0" cy="0" r="3" /><text class="lab lft" transform="translate(-3 -7.0)" /></g><path class="edge" d="M 0 0 V -50.7365 H 67.5625" /><circle class="sym" cx="0" cy="0" r="3" /><text class="lab lft" transform="translate(-3 -7.0)" /></g><g class="a34 c2 node n33 p0" transform="translate(67.5625 33.7766)"><g class="a33 c2 node n20 p0" transform="translate(41.6875 49.3236)"><g class="a20 i7 leaf node n14 p0 sample" transform="translate(-11.5 0.386823)"><path class="edge" d="M 0 0 V -0.386823 H 11.5" /><rect class="sym" height="6" width="6" x="-3" y="-3" /><text class="lab" transform="translate(0 11)" /></g><g class="a20 i9 leaf node n18 p0 sample" transform="translate(11.5 0.386823)"><path class="edge" d="M 0 0 V -0.386823 H -11.5" /><rect class="sym" height="6" width="6" x="-3" y="-3" /><text class="lab" transform="translate(0 11)" /></g><path class="edge" d="M 0 0 V -49.3236 H -41.6875" /><circle class="sym" cx="0" cy="0" r="3" /><text class="lab rgt" transform="translate(3 -7.0)" /></g><g class="a33 c2 node n26 p0" transform="translate(-41.6875 38.6765)"><g class="a26 i3 leaf node n6 p0 sample" transform="translate(-20.125 11.0339)"><path class="edge" d="M 0 0 V -11.0339 H 20.125" /><rect class="sym" height="6" width="6" x="-3" y="-3" /><text class="lab" transform="translate(0 11)" /></g><g class="a26 c2 node n22 p0" transform="translate(20.125 6.66596)"><g class="a22 i5 leaf node n10 p0 sample" transform="translate(-17.25 4.36798)"><path class="edge" d="M 0 0 V -4.36798 H 17.25" /><rect class="sym" height="6" width="6" x="-3" y="-3" /><text class="lab" transform="translate(0 11)" /></g><g class="a22 c2 node n21 p0" transform="translate(17.25 3.36504)"><g class="a21 i5 leaf node n11 p0 sample" transform="translate(-11.5 1.00294)"><path class="edge" d="M 0 0 V -1.00294 H 11.5" /><rect class="sym" height="6" width="6" x="-3" y="-3" /><text class="lab" transform="translate(0 11)" /></g><g class="a21 i6 leaf node n12 p0 sample" transform="translate(11.5 1.00294)"><path class="edge" d="M 0 0 V -1.00294 H -11.5" /><rect class="sym" height="6" width="6" x="-3" y="-3" /><text class="lab" transform="translate(0 11)" /></g><path class="edge" d="M 0 0 V -3.36504 H -17.25" /><circle class="sym" cx="0" cy="0" r="3" /><text class="lab rgt" transform="translate(3 -7.0)" /></g><path class="edge" d="M 0 0 V -6.66596 H -20.125" /><circle class="sym" cx="0" cy="0" r="3" /><text class="lab rgt" transform="translate(3 -7.0)" /></g><path class="edge" d="M 0 0 V -38.6765 H 41.6875" /><circle class="sym" cx="0" cy="0" r="3" /><text class="lab lft" transform="translate(-3 -7.0)" /></g><path class="edge" d="M 0 0 V -33.7766 H -67.5625" /><circle class="sym" cx="0" cy="0" r="3" /><text class="lab rgt" transform="translate(3 -7.0)" /></g><path class="edge" d="M 0 0 V -139.94 H -102.062" /><circle class="sym" cx="0" cy="0" r="3" /><text class="lab rgt" transform="translate(3 -7.0)" /></g><path class="edge" d="M 0 0 V -17.9731 H 137.281" /><circle class="sym" cx="0" cy="0" r="3" /><text class="lab lft" transform="translate(-3 -7.0)" /></g><circle class="sym" cx="0" cy="0" r="3" /><text class="lab" transform="translate(0 -11)" /></g></g></g></svg>